<svg width="66" height="87" viewBox="0 0 66 87" fill="none" xmlns="http://www.w3.org/2000/svg">
<path d="M34.76 86.312C34.1627 86.312 32.456 86.2267 29.64 86.056C26.9093 85.8853 23.1547 85.7147 18.376 85.544C16.584 85.4587 15.1333 85.2027 14.024 84.776C13 84.264 12.488 82.9413 12.488 80.808C12.488 80.552 12.488 80.168 12.488 79.656C12.5733 79.0587 12.6587 78.3333 12.744 77.48C12.8293 75.5173 12.9573 73.0427 13.128 70.056C13.384 66.984 13.6827 63.4853 14.024 59.56C14.6213 51.624 15.0053 45.6507 15.176 41.64C15.2613 39.9333 15.432 38.184 15.688 36.392C15.944 34.6 16.4987 32.936 17.352 31.4C12.9147 31.7413 7.92267 32.1253 2.376 32.552C0.925333 32.4667 0.2 31.0587 0.2 28.328C0.2 25.256 0.370667 21.672 0.712 17.576C1.05333 13.3947 1.48 8.74399 1.992 3.62399C2.41867 1.832 3.48533 0.978663 5.192 1.064C6.81333 1.14933 8.81867 1.36266 11.208 1.70399C13.6827 1.96 16.584 2.344 19.912 2.856C23.1547 3.36799 25.9707 3.79466 28.36 4.13599C30.8347 4.392 32.8827 4.56266 34.504 4.64799C35.1867 4.64799 35.8693 4.69066 36.552 4.77599C37.2347 4.77599 38.0027 4.77599 38.856 4.77599C40.0507 4.77599 41.3733 4.77599 42.824 4.77599C44.2747 4.69066 45.8107 4.60533 47.432 4.52C49.1387 4.43466 50.7173 4.392 52.168 4.392C53.6187 4.30666 54.8987 4.26399 56.008 4.26399C56.8613 4.26399 57.6293 4.30666 58.312 4.392C58.9947 4.392 59.6347 4.392 60.232 4.392C63.56 4.56266 65.096 6.48266 64.84 10.152L63.688 31.656C63.5173 34.0453 62.4507 35.24 60.488 35.24C59.72 35.24 58.568 35.0693 57.032 34.728C55.496 34.3867 53.96 34.0453 52.424 33.704C50.888 33.3627 49.6933 33.192 48.84 33.192C47.304 33.192 46.408 35.624 46.152 40.488C46.0667 42.1093 46.024 43.7307 46.024 45.352C46.024 46.9733 46.024 48.6373 46.024 50.344C45.8533 52.648 45.1707 53.7573 43.976 53.672C43.464 53.672 43.208 52.6907 43.208 50.728C43.208 49.448 43.2507 48.1253 43.336 46.76C43.5067 45.3947 43.6773 44.072 43.848 42.792V39.72C40.6907 41.0853 38.2587 41.7253 36.552 41.64C33.736 41.384 31.6027 40.5733 30.152 39.208C28.7867 37.7573 27.848 35.9653 27.336 33.832C26.9093 31.6133 26.6107 29.3093 26.44 26.92C26.2693 24.7013 25.1173 23.4213 22.984 23.08C22.6427 22.9947 22.0027 22.9093 21.064 22.824C20.2107 22.7387 19.016 22.6533 17.48 22.568C13.8107 22.3973 9.97067 20.8613 5.96 17.96V21.544C5.96 22.1413 5.74667 22.9947 5.32 24.104C4.97867 25.2133 4.808 26.024 4.808 26.536C4.808 27.048 5.192 27.3893 5.96 27.56C6.64267 27.56 7.79467 27.5173 9.416 27.432C11.0373 27.3467 12.7013 27.2613 14.408 27.176C16.1147 27.0907 17.48 27.048 18.504 27.048C20.8933 27.048 22.1307 28.328 22.216 30.888C21.8747 31.2293 21.1493 31.4 20.04 31.4C19.9547 32.3387 19.784 33.5333 19.528 34.984C19.3573 36.3493 19.1867 37.9707 19.016 39.848C19.784 40.1893 20.7227 40.9147 21.832 42.024C22.9413 43.048 24.1787 44.4987 25.544 46.376C26.2267 47.3147 28.0613 48.6373 31.048 50.344C32.2427 51.0267 33.224 51.88 33.992 52.904C34.8453 53.928 35.528 55.0373 36.04 56.232C36.3813 57 36.4667 57.9387 36.296 59.048C36.2107 59.56 36.1253 60.072 36.04 60.584C35.9547 61.096 35.912 61.608 35.912 62.12C35.912 62.9733 36.1253 64.168 36.552 65.704C37.064 67.1547 37.32 68.3493 37.32 69.288C37.32 73.64 35.272 77.3947 31.176 80.552C32.0293 80.6373 32.7973 80.68 33.48 80.68C34.1627 80.68 34.76 80.68 35.272 80.68C38.7707 80.68 40.904 79.7413 41.672 77.864C41.8427 77.352 42.1413 73.2987 42.568 65.704C42.568 65.2773 42.6533 64.5093 42.824 63.4C43.08 62.2907 43.3787 61.2667 43.72 60.328C44.0613 59.304 44.4027 58.792 44.744 58.792C45.3413 59.304 45.64 60.6267 45.64 62.76C45.64 63.9547 45.512 65.6613 45.256 67.88C45.1707 69.0747 45.0853 69.9707 45 70.568C45 71.1653 45 71.5067 45 71.592C45 72.5307 45 73.8533 45 75.56C45.0853 77.1813 45.1707 78.8027 45.256 80.424C45.3413 82.0453 45.3413 83.3253 45.256 84.264C45.1707 85.6293 41.672 86.312 34.76 86.312Z" fill="#F9F0F0"/>
</svg>
